simulation
nRows=25
nColumns=15
endheader
time  TH_x TH_y TH_z SC_y  SC_z  SC_x  AC_y  AC_z  AC_x  GH_y  GH_z  GH_yy  EL_x  PS_y
0.000000  0.000000  0.000000  0.000000  -21.784000  6.303000  1.000000  46.295000  4.899000  -1.180000  0.000000  8.000000  0.000000  5.000000  0.000000
0.000000  0.000000  0.000000  0.000000  -21.784000  6.303000  0.999999  46.295000  4.899000  -1.180000  0.000000  8.000000  -0.000000  5.000000  0.000000
0.000001  0.000000  0.000000  0.000000  -21.784000  6.303000  0.999998  46.295000  4.899001  -1.179999  0.000000  8.000000  -0.000000  5.000000  0.000000
0.000001  0.000000  0.000000  0.000000  -21.784000  6.303000  0.999996  46.295000  4.899003  -1.179997  0.000001  8.000000  -0.000001  5.000000  0.000000
0.000003  0.000000  0.000000  0.000000  -21.784000  6.303000  0.999963  46.294995  4.899027  -1.179975  0.000007  8.000000  -0.000005  5.000000  0.000000
0.000004  0.000000  0.000000  0.000000  -21.784000  6.303000  0.999901  46.294988  4.899072  -1.179932  0.000020  7.999999  -0.000013  4.999999  0.000000
0.000006  0.000000  0.000000  0.000000  -21.784000  6.303000  0.999831  46.294978  4.899124  -1.179884  0.000036  7.999999  -0.000023  4.999999  0.000000
0.000007  0.000000  0.000000  0.000000  -21.784001  6.303000  0.999745  46.294967  4.899186  -1.179826  0.000055  7.999998  -0.000036  4.999999  0.000000
0.000009  0.000000  0.000000  0.000000  -21.784001  6.303000  0.999647  46.294953  4.899257  -1.179759  0.000080  7.999998  -0.000052  4.999998  0.000000
0.000010  0.000000  0.000000  0.000000  -21.784001  6.303000  0.999538  46.294937  4.899338  -1.179684  0.000108  7.999997  -0.000071  4.999997  0.000000
0.000013  0.000000  0.000000  0.000000  -21.784002  6.303000  0.999326  46.294905  4.899493  -1.179540  0.000167  7.999995  -0.000109  4.999996  0.000000
0.000015  0.000000  0.000000  0.000000  -21.784003  6.303000  0.999091  46.294867  4.899665  -1.179379  0.000239  7.999992  -0.000156  4.999994  0.000000
0.000018  0.000000  0.000000  0.000000  -21.784004  6.303001  0.998838  46.294824  4.899851  -1.179207  0.000324  7.999989  -0.000210  4.999991  0.000000
0.000020  0.000000  0.000000  0.000000  -21.784006  6.303001  0.998570  46.294776  4.900049  -1.179025  0.000420  7.999986  -0.000273  4.999989  0.000000
0.000023  0.000000  0.000000  0.000000  -21.784008  6.303001  0.998290  46.294723  4.900255  -1.178835  0.000530  7.999982  -0.000343  4.999985  0.000000
0.000027  0.000000  0.000000  0.000000  -21.784011  6.303001  0.997824  46.294628  4.900600  -1.178519  0.000731  7.999974  -0.000472  4.999980  0.000000
0.000031  0.000000  0.000000  0.000000  -21.784016  6.303002  0.997342  46.294521  4.900958  -1.178193  0.000964  7.999965  -0.000620  4.999973  0.000000
0.000035  0.000000  0.000000  0.000000  -21.784021  6.303002  0.996849  46.294403  4.901325  -1.177860  0.001228  7.999955  -0.000789  4.999965  0.000000
0.000039  0.000000  0.000000  0.000000  -21.784026  6.303003  0.996348  46.294274  4.901700  -1.177523  0.001523  7.999943  -0.000977  4.999957  0.000000
0.000043  0.000000  0.000000  0.000000  -21.784033  6.303003  0.995843  46.294133  4.902079  -1.177183  0.001850  7.999930  -0.001184  4.999947  0.000000
0.000049  0.000000  0.000000  0.000000  -21.784044  6.303004  0.995054  46.293894  4.902674  -1.176655  0.002417  7.999906  -0.001543  4.999930  0.000000
0.000055  0.000000  0.000000  0.000000  -21.784057  6.303005  0.994261  46.293629  4.903276  -1.176126  0.003058  7.999879  -0.001947  4.999911  0.000000
0.000061  0.000000  0.000000  0.000000  -21.784073  6.303007  0.993466  46.293338  4.903883  -1.175598  0.003772  7.999849  -0.002398  4.999889  0.000000
0.000068  0.000000  0.000000  0.000000  -21.784089  6.303008  0.992670  46.293022  4.904495  -1.175071  0.004560  7.999815  -0.002894  4.999865  0.000000
0.000074  0.000000  0.000000  0.000000  -21.784108  6.303010  0.991874  46.292680  4.905110  -1.174545  0.005420  7.999778  -0.003435  4.999839  0.000000
